<svg width="24" height="24" viewBox="0 0 24 24" fill="none" xmlns="http://www.w3.org/2000/svg">
  <path d="M12 2C8.5 2 5.5 4.5 5 8c-.3 2.2.5 4.3 2 5.8.5.5.8 1.2.8 2v.2c0 1.1.9 2 2 2h.5c.3.6.9 1 1.7 1s1.4-.4 1.7-1h.5c1.1 0 2-.9 2-2v-.2c0-.8.3-1.5.8-2C18.5 12.3 19.3 10.2 19 8c-.5-3.5-3.5-6-7-6z" stroke="currentColor" stroke-width="1.5" stroke-linecap="round" stroke-linejoin="round"/>
  <path d="M9 13.5c1-.5 2-1 3-1s2 .5 3 1" stroke="currentColor" stroke-width="1.5" stroke-linecap="round"/>
  <path d="M8 9.5c.5-.5 1.2-.8 2-.5M14 9c.8-.3 1.5 0 2 .5" stroke="currentColor" stroke-width="1.5" stroke-linecap="round"/>
  <path d="M12 6v2M9.5 7l1 1.5M14.5 7l-1 1.5" stroke="currentColor" stroke-width="1.2" stroke-linecap="round"/>
</svg>
